# xmcd
#
# Track frame offsets:
# 150
# 12259
# 24312
# 37784
# 51313
# 64633
# 81695
# 95214
# 108962
# 125938
# 137337
# 148491
# 159688
# 176606
# 189312
# 201541
# 215263
# 231677
# 245399
# 256564
# 270311
# 289768
# 302860
# 321486
# 339988
#
# Disc length: 4705 seconds
#
#
# Revision: 0
# Processed by: cddbd v1.5.2PL0 Copyright (c) Steve Scherf et al.
# Submitted via: FreeRIP 2.90 
#
DISCID=7b125f19
DTITLE=Percy Mayfield - Blues Laureate
DYEAR=1968
DGENRE=Blues
TTITLE0=Yes, You'll Play
TTITLE1=Live Today Like The Day Before
TTITLE2=Highway Is Like A Woman
TTITLE3=Painful Party
TTITLE4=You Wear Your Hair Too Long
TTITLE5=To Love the Past
TTITLE6=My Friend
TTITLE7=A Lying Woman (Not Trustworthy)
TTITLE8=To Claim It's Love
TTITLE9=My Error
TTITLE10=The Country
TTITLE11=Weakness Is a Thing Called Man
TTITLE12=California Blues
TTITLE13=Hand in Hand with Another Man
TTITLE14=Brotherhood Week
TTITLE15=I Hope You Get the Message
TTITLE16=The Flirt
TTITLE17=Getting You off My Mind
TTITLE18=I've Got a Secret
TTITLE19=Sign on the Dotted Line
TTITLE20=You Lied to Me for Your Last Time
TTITLE21=Right on Young Americans
TTITLE22=Contact Me (When You Find Her)
TTITLE23=The Love and the Married Woman
TTITLE24=The Devil Made Me Do It
EXTD=1968-1971
EXTT0=
EXTT1=
EXTT2=
EXTT3=
EXTT4=
EXTT5=
EXTT6=
EXTT7=
EXTT8=
EXTT9=
EXTT10=
EXTT11=
EXTT12=
EXTT13=
EXTT14=
EXTT15=
EXTT16=
EXTT17=
EXTT18=
EXTT19=
EXTT20=
EXTT21=
EXTT22=
EXTT23=
EXTT24=
PLAYORDER=
